<?xml version="1.0" standalone="no"?>
<!DOCTYPE svg PUBLIC "-//W3C//DTD SVG 20010904//EN"
 "http://www.w3.org/TR/2001/REC-SVG-20010904/DTD/svg10.dtd">
<svg version="1.0" xmlns="http://www.w3.org/2000/svg"
 width="491.000000pt" height="212.000000pt" viewBox="0 0 491.000000 212.000000"
 preserveAspectRatio="xMidYMid meet">
<metadata>
Created by potrace 1.16, written by Peter Selinger 2001-2019
</metadata>
<g transform="translate(0.000000,212.000000) scale(0.100000,-0.100000)"
fill="#000000" stroke="none">
<path d="M356 1524 c-14 -14 -16 -70 -16 -469 0 -399 2 -455 16 -469 13 -13
42 -16 165 -16 85 0 159 5 170 10 18 10 19 26 19 475 0 449 -1 465 -19 475
-11 5 -85 10 -170 10 -123 0 -152 -3 -165 -16z"/>
<path d="M903 1533 c-10 -3 -13 -45 -13 -158 0 -142 2 -155 19 -165 26 -13
346 -13 372 0 17 10 19 23 19 164 0 131 -2 155 -16 160 -19 7 -363 7 -381 -1z"/>
<path d="M1544 1213 c2 -10 19 -91 37 -180 l32 -163 30 0 c25 0 28 3 24 23 -4
12 -18 78 -33 147 -15 69 -30 139 -33 155 -5 23 -13 31 -35 33 -23 3 -27 0
-22 -15z"/>
<path d="M2013 1205 c-78 -47 -104 -149 -60 -235 36 -73 127 -120 127 -67 0
16 -9 28 -25 35 -35 16 -65 70 -65 117 0 47 30 101 65 117 16 7 25 19 25 35 0
29 -15 29 -67 -2z"/>
<path d="M2140 1207 c0 -14 10 -29 29 -40 32 -19 61 -72 61 -111 0 -44 -27
-95 -60 -114 -35 -20 -43 -62 -11 -62 43 0 106 67 121 131 20 80 -19 167 -91
204 -39 21 -49 19 -49 -8z"/>
<path d="M2350 1206 l0 -26 93 0 c106 0 137 -13 137 -58 0 -56 -33 -72 -144
-72 l-86 0 0 -90 0 -90 30 0 30 0 0 65 0 65 43 0 c40 0 44 -3 86 -65 40 -59
48 -65 79 -65 l34 0 -46 64 c-48 67 -55 86 -33 86 26 0 59 48 64 93 5 39 2 48
-25 78 l-30 34 -116 3 -116 4 0 -26z"/>
<path d="M2740 1055 l0 -175 25 0 c22 0 25 4 25 38 0 34 11 49 124 172 l125
135 -35 3 c-31 3 -40 -4 -115 -82 -45 -47 -85 -86 -90 -86 -5 0 -9 38 -9 85 0
84 0 85 -25 85 l-25 0 0 -175z"/>
<path d="M3550 1050 l0 -180 125 0 125 0 0 30 0 30 -95 0 -95 0 0 150 0 150
-30 0 -30 0 0 -180z"/>
<path d="M4040 1050 l0 -180 30 0 30 0 0 180 0 180 -30 0 -30 0 0 -180z"/>
<path d="M4310 1226 c0 -3 25 -40 55 -82 30 -42 55 -81 55 -87 0 -5 -27 -47
-60 -94 -33 -46 -60 -86 -60 -88 0 -3 15 -5 34 -5 32 0 38 7 155 175 66 96
121 177 121 180 0 3 -13 5 -30 5 -25 0 -36 -9 -70 -61 -23 -33 -45 -59 -50
-57 -5 2 -26 28 -47 58 -31 45 -45 56 -71 58 -18 2 -32 1 -32 -2z"/>
<path d="M1697 1148 c-20 -71 -15 -163 7 -132 10 13 15 2 30 -65 17 -80 17
-81 48 -81 20 0 29 4 26 13 -3 6 -22 83 -44 170 -21 86 -41 157 -44 157 -3 0
-13 -28 -23 -62z"/>
<path d="M3150 975 l0 -105 25 0 c25 0 25 1 25 80 l0 80 95 0 c95 0 95 0 95
25 l0 25 -120 0 -120 0 0 -105z"/>
<path d="M902 1012 c-9 -7 -12 -55 -10 -208 l3 -199 200 0 200 0 3 199 c2 153
-1 201 -10 208 -17 10 -369 10 -386 0z"/>
</g>
</svg>
